<svg width="610" height="445" viewBox="0 0 610 445" fill="none" xmlns="http://www.w3.org/2000/svg">
<rect y="48" width="609.453" height="350" fill="white"/>
<path d="M46.8 265.6C51.3333 262 53.4 260.333 53 260.6C66.0667 249.8 76.3333 240.933 83.8 234C91.4 227.067 97.8 219.8 103 212.2C108.2 204.6 110.8 197.2 110.8 190C110.8 184.533 109.533 180.267 107 177.2C104.467 174.133 100.667 172.6 95.6 172.6C90.5333 172.6 86.5333 174.533 83.6 178.4C80.8 182.133 79.4 187.467 79.4 194.4H46.4C46.6667 183.067 49.0667 173.6 53.6 166C58.2667 158.4 64.3333 152.8 71.8 149.2C79.4 145.6 87.8 143.8 97 143.8C112.867 143.8 124.8 147.867 132.8 156C140.933 164.133 145 174.733 145 187.8C145 202.067 140.133 215.333 130.4 227.6C120.667 239.733 108.267 251.6 93.2 263.2H147.2V291H46.8V265.6ZM171.258 218C171.258 195.067 175.658 177 184.458 163.8C193.391 150.6 207.724 144 227.458 144C247.191 144 261.458 150.6 270.258 163.8C279.191 177 283.658 195.067 283.658 218C283.658 241.2 279.191 259.4 270.258 272.6C261.458 285.8 247.191 292.4 227.458 292.4C207.724 292.4 193.391 285.8 184.458 272.6C175.658 259.4 171.258 241.2 171.258 218ZM250.058 218C250.058 204.533 248.591 194.2 245.658 187C242.724 179.667 236.658 176 227.458 176C218.258 176 212.191 179.667 209.258 187C206.324 194.2 204.858 204.533 204.858 218C204.858 227.067 205.391 234.6 206.458 240.6C207.524 246.467 209.658 251.267 212.858 255C216.191 258.6 221.058 260.4 227.458 260.4C233.858 260.4 238.658 258.6 241.858 255C245.191 251.267 247.391 246.467 248.458 240.6C249.524 234.6 250.058 227.067 250.058 218ZM310.727 218C310.727 195.067 315.127 177 323.927 163.8C332.86 150.6 347.193 144 366.927 144C386.66 144 400.927 150.6 409.727 163.8C418.66 177 423.127 195.067 423.127 218C423.127 241.2 418.66 259.4 409.727 272.6C400.927 285.8 386.66 292.4 366.927 292.4C347.193 292.4 332.86 285.8 323.927 272.6C315.127 259.4 310.727 241.2 310.727 218ZM389.527 218C389.527 204.533 388.06 194.2 385.127 187C382.193 179.667 376.127 176 366.927 176C357.727 176 351.66 179.667 348.727 187C345.793 194.2 344.327 204.533 344.327 218C344.327 227.067 344.86 234.6 345.927 240.6C346.993 246.467 349.127 251.267 352.327 255C355.66 258.6 360.527 260.4 366.927 260.4C373.327 260.4 378.127 258.6 381.327 255C384.66 251.267 386.86 246.467 387.927 240.6C388.993 234.6 389.527 227.067 389.527 218ZM474.195 214.6C461.662 207.933 455.395 197.467 455.395 183.2C455.395 176 457.262 169.467 460.995 163.6C464.729 157.6 470.395 152.867 477.995 149.4C485.595 145.8 494.929 144 505.995 144C517.062 144 526.329 145.8 533.795 149.4C541.395 152.867 547.062 157.6 550.795 163.6C554.529 169.467 556.395 176 556.395 183.2C556.395 190.4 554.662 196.667 551.195 202C547.862 207.333 543.329 211.533 537.595 214.6C544.795 218.067 550.329 222.867 554.195 229C558.062 235 559.995 242.067 559.995 250.2C559.995 259.667 557.595 267.867 552.795 274.8C547.995 281.6 541.462 286.8 533.195 290.4C525.062 294 515.995 295.8 505.995 295.8C495.995 295.8 486.862 294 478.595 290.4C470.462 286.8 463.995 281.6 459.195 274.8C454.395 267.867 451.995 259.667 451.995 250.2C451.995 241.933 453.929 234.8 457.795 228.8C461.662 222.667 467.129 217.933 474.195 214.6ZM523.195 188.4C523.195 182.933 521.595 178.733 518.395 175.8C515.329 172.733 511.195 171.2 505.995 171.2C500.795 171.2 496.595 172.733 493.395 175.8C490.329 178.867 488.795 183.133 488.795 188.6C488.795 193.8 490.395 197.933 493.595 201C496.795 203.933 500.929 205.4 505.995 205.4C511.062 205.4 515.195 203.867 518.395 200.8C521.595 197.733 523.195 193.6 523.195 188.4ZM505.995 229.4C499.729 229.4 494.662 231.133 490.795 234.6C486.929 237.933 484.995 242.6 484.995 248.6C484.995 254.2 486.862 258.8 490.595 262.4C494.462 266 499.595 267.8 505.995 267.8C512.395 267.8 517.395 266 520.995 262.4C524.729 258.8 526.595 254.2 526.595 248.6C526.595 242.733 524.662 238.067 520.795 234.6C517.062 231.133 512.129 229.4 505.995 229.4Z" fill="black"/>
</svg>
