<svg width="516" height="515" viewBox="0 0 516 515" fill="none" xmlns="http://www.w3.org/2000/svg">
<path d="M128.731 251.268C122.335 252.395 117.336 256.446 112.606 264.415C111.612 266.105 106.694 275.683 101.695 285.663L92.5844 303.827L63.425 303.907C34.4269 303.988 34.2656 303.988 31.6319 304.578C23.4081 306.456 17.4956 309.676 11.6638 315.498C5.85877 321.293 2.55315 327.383 0.752524 335.593L0.134399 338.329V409.159C0.134399 476.366 0.161274 480.122 0.618149 482.537C2.23065 490.934 6.4769 498.634 12.685 504.402C18.1944 509.5 25.1281 512.961 32.6531 514.356C35.26 514.839 39.6407 514.866 172 514.866C304.359 514.866 308.74 514.839 311.347 514.356C319.49 512.854 326.451 509.178 332.309 503.329C338.114 497.534 341.823 490.532 343.382 482.483C343.839 480.122 343.866 476.178 343.866 409.159V338.329L343.248 335.593C341.447 327.41 338.114 321.293 332.336 315.498C326.504 309.676 320.592 306.456 312.368 304.578C309.734 303.988 309.573 303.988 280.575 303.907L251.416 303.827L242.305 285.663C237.306 275.683 232.549 266.346 231.716 264.951C227.416 257.573 223.331 253.737 217.768 251.859L215.672 251.134L172.806 251.107C149.237 251.08 129.403 251.161 128.731 251.268ZM42.0863 330.441C44.4244 330.871 46.8163 332.132 48.7513 333.902C54.2069 339 54.3144 347.317 49.02 352.629C46.0369 355.607 41.7907 357.056 37.84 356.439C31.2825 355.446 26.5794 350.027 26.5794 343.48C26.5525 340.932 26.875 339.51 27.95 337.39C29.455 334.439 32.1425 332.105 35.3406 331.005C37.8938 330.093 39.5063 329.959 42.0863 330.441ZM181.809 330.817C205.056 333.768 225.266 346.351 238.274 365.883C246.901 378.815 251.281 393.517 251.281 409.427C251.281 419.139 249.803 427.617 246.551 436.605C239.08 457.183 222.498 474.38 202.127 482.671C192.21 486.695 182.938 488.493 172 488.493C157.138 488.493 143.943 484.898 131.204 477.332C124.001 473.066 116.208 466.359 110.644 459.651C101.104 448.195 94.9225 433.6 93.1219 418.254C92.5844 413.746 92.6113 405.08 93.1219 400.573C95.245 382.41 103.173 366.071 116.1 353.22C129.699 339.698 147.517 331.702 167.163 330.307C170.011 330.12 178.611 330.415 181.809 330.817Z" fill="#D7D7D7"/>
<path d="M167.431 370.015C163.185 370.524 158.079 372.107 154.128 374.066C139.75 381.283 131.043 396.79 132.467 412.593C134.106 430.702 146.872 444.788 164.878 448.356C168.238 449.027 175.763 449.027 179.122 448.356C191.673 445.861 201.885 438.215 207.475 427.08C210.727 420.561 212.151 413.21 211.506 406.207C209.921 388.607 197.881 374.817 180.6 370.766C178.316 370.202 176.891 370.068 173.075 369.988C170.495 369.934 167.942 369.961 167.431 370.015Z" fill="#ED6A5A"/>
<g clip-path="url(#clip0)">
<path d="M305.179 322.082C305.179 317.94 301.821 314.582 297.679 314.582H261.679C257.537 314.582 254.179 317.94 254.179 322.082V338.082C254.179 342.224 257.537 345.582 261.679 345.582H297.679C301.821 345.582 305.179 342.224 305.179 338.082V322.082Z" fill="#D7D7D7"/>
<path d="M348.739 149.812C345.227 148.139 341.026 149.425 339.051 152.772L299.953 219.047L286.858 155.034C286.144 151.544 283.073 149.037 279.51 149.037C275.947 149.037 272.876 151.544 272.162 155.033L259.059 219.067L219.963 153.017C217.984 149.674 213.779 148.395 210.275 150.071C206.771 151.747 205.125 155.821 206.483 159.461L255.483 290.705C256.578 293.638 259.379 295.582 262.509 295.582H296.509C299.641 295.582 302.444 293.636 303.537 290.701L352.537 159.201C353.896 155.56 352.247 151.484 348.739 149.812Z" fill="#D7D7D7"/>
<path d="M294.012 123.721C294.012 115.604 287.408 109 279.291 109C271.174 109 264.57 115.604 264.57 123.721C264.57 131.838 271.174 138.442 279.291 138.442C287.408 138.442 294.012 131.838 294.012 123.721Z" fill="#D7D7D7"/>
<path d="M221.012 125.721C221.012 117.604 214.408 111 206.291 111C198.174 111 191.57 117.604 191.57 125.721C191.57 133.838 198.174 140.442 206.291 140.442C214.408 140.442 221.012 133.838 221.012 125.721Z" fill="#D7D7D7"/>
<path d="M352.291 111C344.174 111 337.57 117.604 337.57 125.721C337.57 133.838 344.174 140.442 352.291 140.442C360.408 140.442 367.012 133.838 367.012 125.721C367.012 117.604 360.408 111 352.291 111Z" fill="#D7D7D7"/>
</g>
</svg>
